<?xml version="1.0" encoding="UTF-8" standalone="no"?>
<!DOCTYPE svg PUBLIC "-//W3C//DTD SVG 1.1//EN"
 "http://www.w3.org/Graphics/SVG/1.1/DTD/svg11.dtd">
<!-- Generated by graphviz version 9.0.0 (20230911.1827)
 -->
<!-- Title: day23 Pages: 1 -->
<svg width="689pt" height="479pt"
 viewBox="0.00 0.00 688.93 479.41" xmlns="http://www.w3.org/2000/svg" xmlns:xlink="http://www.w3.org/1999/xlink">
<g id="graph0" class="graph" transform="scale(1 1) rotate(0) translate(4 475.41)">
<title>day23</title>
<polygon fill="white" stroke="none" points="-4,4 -4,-475.41 684.93,-475.41 684.93,4 -4,4"/>
<!-- 0,1 -->
<g id="node1" class="node">
<title>0,1</title>
<ellipse fill="none" stroke="black" cx="653.93" cy="-18.34" rx="27" ry="18"/>
<text text-anchor="middle" x="653.93" y="-13.29" font-family="Times,serif" font-size="14.00">0,1</text>
</g>
<!-- 13,19 -->
<g id="node2" class="node">
<title>13,19</title>
<ellipse fill="none" stroke="black" cx="591.4" cy="-65.69" rx="31.9" ry="18"/>
<text text-anchor="middle" x="591.4" y="-60.64" font-family="Times,serif" font-size="14.00">13,19</text>
</g>
<!-- 0,1&#45;&#45;13,19 -->
<g id="edge1" class="edge">
<title>0,1&#45;&#45;13,19</title>
<path fill="none" stroke="black" d="M635.84,-32.03C627.91,-38.04 618.59,-45.1 610.54,-51.2"/>
</g>
<!-- 43,9 -->
<g id="node3" class="node">
<title>43,9</title>
<ellipse fill="none" stroke="black" cx="508.37" cy="-47.42" rx="27.3" ry="18"/>
<text text-anchor="middle" x="508.37" y="-42.37" font-family="Times,serif" font-size="14.00">43,9</text>
</g>
<!-- 13,19&#45;&#45;43,9 -->
<g id="edge2" class="edge">
<title>13,19&#45;&#45;43,9</title>
<path fill="none" stroke="black" d="M561.42,-59.1C552.69,-57.17 543.22,-55.09 534.73,-53.22"/>
</g>
<!-- 57,17 -->
<g id="node4" class="node">
<title>57,17</title>
<ellipse fill="none" stroke="black" cx="422.65" cy="-32.16" rx="31.9" ry="18"/>
<text text-anchor="middle" x="422.65" y="-27.11" font-family="Times,serif" font-size="14.00">57,17</text>
</g>
<!-- 43,9&#45;&#45;57,17 -->
<g id="edge3" class="edge">
<title>43,9&#45;&#45;57,17</title>
<path fill="none" stroke="black" d="M481.72,-42.68C472.77,-41.08 462.73,-39.3 453.49,-37.65"/>
</g>
<!-- 83,9 -->
<g id="node5" class="node">
<title>83,9</title>
<ellipse fill="none" stroke="black" cx="335.01" cy="-20.82" rx="27.3" ry="18"/>
<text text-anchor="middle" x="335.01" y="-15.77" font-family="Times,serif" font-size="14.00">83,9</text>
</g>
<!-- 57,17&#45;&#45;83,9 -->
<g id="edge4" class="edge">
<title>57,17&#45;&#45;83,9</title>
<path fill="none" stroke="black" d="M391.51,-28.13C381.96,-26.9 371.54,-25.55 362.27,-24.35"/>
</g>
<!-- 103,7 -->
<g id="node6" class="node">
<title>103,7</title>
<ellipse fill="none" stroke="black" cx="245.78" cy="-18" rx="31.9" ry="18"/>
<text text-anchor="middle" x="245.78" y="-12.95" font-family="Times,serif" font-size="14.00">103,7</text>
</g>
<!-- 83,9&#45;&#45;103,7 -->
<g id="edge5" class="edge">
<title>83,9&#45;&#45;103,7</title>
<path fill="none" stroke="black" d="M307.26,-19.94C297.95,-19.65 287.49,-19.32 277.88,-19.01"/>
</g>
<!-- 129,37 -->
<g id="node7" class="node">
<title>129,37</title>
<ellipse fill="none" stroke="black" cx="178.87" cy="-64.5" rx="36.51" ry="18"/>
<text text-anchor="middle" x="178.87" y="-59.45" font-family="Times,serif" font-size="14.00">129,37</text>
</g>
<!-- 103,7&#45;&#45;129,37 -->
<g id="edge6" class="edge">
<title>103,7&#45;&#45;129,37</title>
<path fill="none" stroke="black" d="M225.34,-32.2C217.35,-37.76 208.18,-44.13 200.11,-49.74"/>
</g>
<!-- 103,39 -->
<g id="node8" class="node">
<title>103,39</title>
<ellipse fill="none" stroke="black" cx="246.14" cy="-89.85" rx="36.51" ry="18"/>
<text text-anchor="middle" x="246.14" y="-84.8" font-family="Times,serif" font-size="14.00">103,39</text>
</g>
<!-- 129,37&#45;&#45;103,39 -->
<g id="edge7" class="edge">
<title>129,37&#45;&#45;103,39</title>
<path fill="none" stroke="black" d="M208.18,-75.55C211.01,-76.62 213.89,-77.7 216.72,-78.77"/>
</g>
<!-- 103,39&#45;&#45;103,7 -->
<g id="edge60" class="edge">
<title>103,39&#45;&#45;103,7</title>
<path fill="none" stroke="black" d="M246.05,-71.72C245.99,-60.91 245.93,-47.23 245.87,-36.38"/>
</g>
<!-- 75,37 -->
<g id="node9" class="node">
<title>75,37</title>
<ellipse fill="none" stroke="black" cx="329.3" cy="-101.09" rx="31.9" ry="18"/>
<text text-anchor="middle" x="329.3" y="-96.04" font-family="Times,serif" font-size="14.00">75,37</text>
</g>
<!-- 103,39&#45;&#45;75,37 -->
<g id="edge8" class="edge">
<title>103,39&#45;&#45;75,37</title>
<path fill="none" stroke="black" d="M281.41,-94.62C286.89,-95.36 292.53,-96.12 297.93,-96.85"/>
</g>
<!-- 75,37&#45;&#45;83,9 -->
<g id="edge59" class="edge">
<title>75,37&#45;&#45;83,9</title>
<path fill="none" stroke="black" d="M330.59,-82.87C331.52,-69.83 332.77,-52.33 333.7,-39.24"/>
</g>
<!-- 55,35 -->
<g id="node10" class="node">
<title>55,35</title>
<ellipse fill="none" stroke="black" cx="413.51" cy="-114.77" rx="31.9" ry="18"/>
<text text-anchor="middle" x="413.51" y="-109.72" font-family="Times,serif" font-size="14.00">55,35</text>
</g>
<!-- 75,37&#45;&#45;55,35 -->
<g id="edge9" class="edge">
<title>75,37&#45;&#45;55,35</title>
<path fill="none" stroke="black" d="M360.18,-106.11C367.41,-107.28 375.11,-108.53 382.35,-109.71"/>
</g>
<!-- 55,35&#45;&#45;57,17 -->
<g id="edge58" class="edge">
<title>55,35&#45;&#45;57,17</title>
<path fill="none" stroke="black" d="M415.54,-96.44C417.06,-82.75 419.12,-64.12 420.63,-50.44"/>
</g>
<!-- 31,39 -->
<g id="node11" class="node">
<title>31,39</title>
<ellipse fill="none" stroke="black" cx="497.77" cy="-130.7" rx="31.9" ry="18"/>
<text text-anchor="middle" x="497.77" y="-125.65" font-family="Times,serif" font-size="14.00">31,39</text>
</g>
<!-- 55,35&#45;&#45;31,39 -->
<g id="edge10" class="edge">
<title>55,35&#45;&#45;31,39</title>
<path fill="none" stroke="black" d="M443.93,-120.52C451.47,-121.95 459.56,-123.48 467.11,-124.91"/>
</g>
<!-- 31,39&#45;&#45;43,9 -->
<g id="edge57" class="edge">
<title>31,39&#45;&#45;43,9</title>
<path fill="none" stroke="black" d="M500.07,-112.63C501.83,-98.76 504.26,-79.68 506.04,-65.74"/>
</g>
<!-- 11,37 -->
<g id="node12" class="node">
<title>11,37</title>
<ellipse fill="none" stroke="black" cx="579.67" cy="-149.65" rx="31.9" ry="18"/>
<text text-anchor="middle" x="579.67" y="-144.6" font-family="Times,serif" font-size="14.00">11,37</text>
</g>
<!-- 31,39&#45;&#45;11,37 -->
<g id="edge11" class="edge">
<title>31,39&#45;&#45;11,37</title>
<path fill="none" stroke="black" d="M527.33,-137.54C534.67,-139.24 542.53,-141.06 549.87,-142.76"/>
</g>
<!-- 11,37&#45;&#45;13,19 -->
<g id="edge12" class="edge">
<title>11,37&#45;&#45;13,19</title>
<path fill="none" stroke="black" d="M582.21,-131.43C584.18,-117.35 586.89,-97.95 588.86,-83.87"/>
</g>
<!-- 7,59 -->
<g id="node13" class="node">
<title>7,59</title>
<ellipse fill="none" stroke="black" cx="563.82" cy="-235.26" rx="27.3" ry="18"/>
<text text-anchor="middle" x="563.82" y="-230.21" font-family="Times,serif" font-size="14.00">7,59</text>
</g>
<!-- 11,37&#45;&#45;7,59 -->
<g id="edge13" class="edge">
<title>11,37&#45;&#45;7,59</title>
<path fill="none" stroke="black" d="M576.3,-167.81C573.62,-182.34 569.86,-202.61 567.17,-217.13"/>
</g>
<!-- 33,59 -->
<g id="node14" class="node">
<title>33,59</title>
<ellipse fill="none" stroke="black" cx="483.16" cy="-215.09" rx="31.9" ry="18"/>
<text text-anchor="middle" x="483.16" y="-210.04" font-family="Times,serif" font-size="14.00">33,59</text>
</g>
<!-- 7,59&#45;&#45;33,59 -->
<g id="edge14" class="edge">
<title>7,59&#45;&#45;33,59</title>
<path fill="none" stroke="black" d="M537.85,-228.77C529.84,-226.76 520.96,-224.54 512.72,-222.48"/>
</g>
<!-- 33,59&#45;&#45;31,39 -->
<g id="edge15" class="edge">
<title>33,59&#45;&#45;31,39</title>
<path fill="none" stroke="black" d="M486.33,-196.78C488.78,-182.63 492.16,-163.13 494.61,-148.98"/>
</g>
<!-- 67,53 -->
<g id="node15" class="node">
<title>67,53</title>
<ellipse fill="none" stroke="black" cx="398" cy="-199.81" rx="31.9" ry="18"/>
<text text-anchor="middle" x="398" y="-194.76" font-family="Times,serif" font-size="14.00">67,53</text>
</g>
<!-- 33,59&#45;&#45;67,53 -->
<g id="edge16" class="edge">
<title>33,59&#45;&#45;67,53</title>
<path fill="none" stroke="black" d="M452.42,-209.58C444.7,-208.19 436.42,-206.71 428.7,-205.32"/>
</g>
<!-- 67,53&#45;&#45;55,35 -->
<g id="edge17" class="edge">
<title>67,53&#45;&#45;55,35</title>
<path fill="none" stroke="black" d="M401.29,-181.78C403.91,-167.44 407.55,-147.48 410.17,-133.07"/>
</g>
<!-- 81,63 -->
<g id="node16" class="node">
<title>81,63</title>
<ellipse fill="none" stroke="black" cx="312.63" cy="-185.63" rx="31.9" ry="18"/>
<text text-anchor="middle" x="312.63" y="-180.58" font-family="Times,serif" font-size="14.00">81,63</text>
</g>
<!-- 67,53&#45;&#45;81,63 -->
<g id="edge18" class="edge">
<title>67,53&#45;&#45;81,63</title>
<path fill="none" stroke="black" d="M367.18,-194.69C359.54,-193.42 351.35,-192.06 343.7,-190.79"/>
</g>
<!-- 81,63&#45;&#45;75,37 -->
<g id="edge19" class="edge">
<title>81,63&#45;&#45;75,37</title>
<path fill="none" stroke="black" d="M316.25,-167.28C319.05,-153.1 322.9,-133.57 325.69,-119.4"/>
</g>
<!-- 113,59 -->
<g id="node17" class="node">
<title>113,59</title>
<ellipse fill="none" stroke="black" cx="227.55" cy="-171.65" rx="36.51" ry="18"/>
<text text-anchor="middle" x="227.55" y="-166.6" font-family="Times,serif" font-size="14.00">113,59</text>
</g>
<!-- 81,63&#45;&#45;113,59 -->
<g id="edge20" class="edge">
<title>81,63&#45;&#45;113,59</title>
<path fill="none" stroke="black" d="M281.92,-180.58C275.63,-179.55 268.98,-178.46 262.56,-177.4"/>
</g>
<!-- 113,59&#45;&#45;103,39 -->
<g id="edge21" class="edge">
<title>113,59&#45;&#45;103,39</title>
<path fill="none" stroke="black" d="M231.68,-153.5C234.76,-139.94 238.95,-121.5 242.02,-107.96"/>
</g>
<!-- 137,59 -->
<g id="node18" class="node">
<title>137,59</title>
<ellipse fill="none" stroke="black" cx="150.29" cy="-149.09" rx="36.51" ry="18"/>
<text text-anchor="middle" x="150.29" y="-144.04" font-family="Times,serif" font-size="14.00">137,59</text>
</g>
<!-- 113,59&#45;&#45;137,59 -->
<g id="edge22" class="edge">
<title>113,59&#45;&#45;137,59</title>
<path fill="none" stroke="black" d="M195.68,-162.35C191.19,-161.03 186.58,-159.69 182.09,-158.38"/>
</g>
<!-- 137,59&#45;&#45;129,37 -->
<g id="edge23" class="edge">
<title>137,59&#45;&#45;129,37</title>
<path fill="none" stroke="black" d="M156.35,-131.15C161.17,-116.9 167.88,-97.04 172.72,-82.71"/>
</g>
<!-- 131,79 -->
<g id="node19" class="node">
<title>131,79</title>
<ellipse fill="none" stroke="black" cx="130.16" cy="-235.2" rx="36.51" ry="18"/>
<text text-anchor="middle" x="130.16" y="-230.15" font-family="Times,serif" font-size="14.00">131,79</text>
</g>
<!-- 137,59&#45;&#45;131,79 -->
<g id="edge24" class="edge">
<title>137,59&#45;&#45;131,79</title>
<path fill="none" stroke="black" d="M146.02,-167.35C142.61,-181.97 137.84,-202.36 134.42,-216.96"/>
</g>
<!-- 109,89 -->
<g id="node20" class="node">
<title>109,89</title>
<ellipse fill="none" stroke="black" cx="210.83" cy="-255.25" rx="36.51" ry="18"/>
<text text-anchor="middle" x="210.83" y="-250.2" font-family="Times,serif" font-size="14.00">109,89</text>
</g>
<!-- 131,79&#45;&#45;109,89 -->
<g id="edge25" class="edge">
<title>131,79&#45;&#45;109,89</title>
<path fill="none" stroke="black" d="M162.97,-243.35C167.86,-244.57 172.89,-245.82 177.78,-247.03"/>
</g>
<!-- 109,89&#45;&#45;113,59 -->
<g id="edge56" class="edge">
<title>109,89&#45;&#45;113,59</title>
<path fill="none" stroke="black" d="M214.46,-237.11C217.24,-223.18 221.07,-204.03 223.87,-190.04"/>
</g>
<!-- 85,77 -->
<g id="node21" class="node">
<title>85,77</title>
<ellipse fill="none" stroke="black" cx="296" cy="-270.49" rx="31.9" ry="18"/>
<text text-anchor="middle" x="296" y="-265.44" font-family="Times,serif" font-size="14.00">85,77</text>
</g>
<!-- 109,89&#45;&#45;85,77 -->
<g id="edge26" class="edge">
<title>109,89&#45;&#45;85,77</title>
<path fill="none" stroke="black" d="M245.47,-261.44C252.01,-262.62 258.81,-263.83 265.22,-264.98"/>
</g>
<!-- 85,77&#45;&#45;81,63 -->
<g id="edge55" class="edge">
<title>85,77&#45;&#45;81,63</title>
<path fill="none" stroke="black" d="M299.53,-252.49C302.33,-238.19 306.24,-218.26 309.05,-203.89"/>
</g>
<!-- 55,85 -->
<g id="node22" class="node">
<title>55,85</title>
<ellipse fill="none" stroke="black" cx="381.37" cy="-284.67" rx="31.9" ry="18"/>
<text text-anchor="middle" x="381.37" y="-279.62" font-family="Times,serif" font-size="14.00">55,85</text>
</g>
<!-- 85,77&#45;&#45;55,85 -->
<g id="edge27" class="edge">
<title>85,77&#45;&#45;55,85</title>
<path fill="none" stroke="black" d="M326.82,-275.61C334.46,-276.88 342.65,-278.24 350.31,-279.51"/>
</g>
<!-- 55,85&#45;&#45;67,53 -->
<g id="edge54" class="edge">
<title>55,85&#45;&#45;67,53</title>
<path fill="none" stroke="black" d="M384.9,-266.68C387.7,-252.37 391.61,-232.45 394.42,-218.08"/>
</g>
<!-- 41,87 -->
<g id="node23" class="node">
<title>41,87</title>
<ellipse fill="none" stroke="black" cx="466.44" cy="-298.69" rx="31.9" ry="18"/>
<text text-anchor="middle" x="466.44" y="-293.64" font-family="Times,serif" font-size="14.00">41,87</text>
</g>
<!-- 55,85&#45;&#45;41,87 -->
<g id="edge28" class="edge">
<title>55,85&#45;&#45;41,87</title>
<path fill="none" stroke="black" d="M412.08,-289.74C419.7,-290.99 427.86,-292.34 435.49,-293.59"/>
</g>
<!-- 41,87&#45;&#45;33,59 -->
<g id="edge53" class="edge">
<title>41,87&#45;&#45;33,59</title>
<path fill="none" stroke="black" d="M470.07,-280.55C472.88,-266.53 476.74,-247.21 479.54,-233.2"/>
</g>
<!-- 7,79 -->
<g id="node24" class="node">
<title>7,79</title>
<ellipse fill="none" stroke="black" cx="543.7" cy="-321.33" rx="27.3" ry="18"/>
<text text-anchor="middle" x="543.7" y="-316.28" font-family="Times,serif" font-size="14.00">7,79</text>
</g>
<!-- 41,87&#45;&#45;7,79 -->
<g id="edge29" class="edge">
<title>41,87&#45;&#45;7,79</title>
<path fill="none" stroke="black" d="M495.21,-307.12C502.93,-309.39 511.22,-311.82 518.72,-314.01"/>
</g>
<!-- 7,79&#45;&#45;7,59 -->
<g id="edge30" class="edge">
<title>7,79&#45;&#45;7,59</title>
<path fill="none" stroke="black" d="M547.96,-303.08C551.38,-288.47 556.14,-268.09 559.56,-253.49"/>
</g>
<!-- 19,107 -->
<g id="node25" class="node">
<title>19,107</title>
<ellipse fill="none" stroke="black" cx="515.15" cy="-405.91" rx="36.51" ry="18"/>
<text text-anchor="middle" x="515.15" y="-400.86" font-family="Times,serif" font-size="14.00">19,107</text>
</g>
<!-- 7,79&#45;&#45;19,107 -->
<g id="edge31" class="edge">
<title>7,79&#45;&#45;19,107</title>
<path fill="none" stroke="black" d="M537.64,-339.27C532.83,-353.53 526.13,-373.38 521.29,-387.71"/>
</g>
<!-- 43,105 -->
<g id="node26" class="node">
<title>43,105</title>
<ellipse fill="none" stroke="black" cx="447.88" cy="-380.5" rx="36.51" ry="18"/>
<text text-anchor="middle" x="447.88" y="-375.45" font-family="Times,serif" font-size="14.00">43,105</text>
</g>
<!-- 19,107&#45;&#45;43,105 -->
<g id="edge32" class="edge">
<title>19,107&#45;&#45;43,105</title>
<path fill="none" stroke="black" d="M485.84,-394.84C483.01,-393.77 480.13,-392.68 477.3,-391.61"/>
</g>
<!-- 43,105&#45;&#45;41,87 -->
<g id="edge33" class="edge">
<title>43,105&#45;&#45;41,87</title>
<path fill="none" stroke="black" d="M452,-362.34C455.08,-348.79 459.26,-330.34 462.34,-316.8"/>
</g>
<!-- 57,103 -->
<g id="node27" class="node">
<title>57,103</title>
<ellipse fill="none" stroke="black" cx="364.73" cy="-369.22" rx="36.51" ry="18"/>
<text text-anchor="middle" x="364.73" y="-364.17" font-family="Times,serif" font-size="14.00">57,103</text>
</g>
<!-- 43,105&#45;&#45;57,103 -->
<g id="edge34" class="edge">
<title>43,105&#45;&#45;57,103</title>
<path fill="none" stroke="black" d="M412.62,-375.71C408.55,-375.16 404.39,-374.6 400.32,-374.05"/>
</g>
<!-- 57,103&#45;&#45;55,85 -->
<g id="edge35" class="edge">
<title>57,103&#45;&#45;55,85</title>
<path fill="none" stroke="black" d="M368.34,-350.88C371.13,-336.69 374.98,-317.16 377.77,-302.98"/>
</g>
<!-- 89,101 -->
<g id="node28" class="node">
<title>89,101</title>
<ellipse fill="none" stroke="black" cx="280.52" cy="-355.53" rx="36.51" ry="18"/>
<text text-anchor="middle" x="280.52" y="-350.48" font-family="Times,serif" font-size="14.00">89,101</text>
</g>
<!-- 57,103&#45;&#45;89,101 -->
<g id="edge36" class="edge">
<title>57,103&#45;&#45;89,101</title>
<path fill="none" stroke="black" d="M330,-363.57C325.19,-362.79 320.26,-361.99 315.45,-361.21"/>
</g>
<!-- 89,101&#45;&#45;85,77 -->
<g id="edge37" class="edge">
<title>89,101&#45;&#45;85,77</title>
<path fill="none" stroke="black" d="M283.81,-337.5C286.41,-323.16 290.05,-303.19 292.67,-288.79"/>
</g>
<!-- 109,109 -->
<g id="node29" class="node">
<title>109,109</title>
<ellipse fill="none" stroke="black" cx="196.25" cy="-339.63" rx="41.12" ry="18"/>
<text text-anchor="middle" x="196.25" y="-334.58" font-family="Times,serif" font-size="14.00">109,109</text>
</g>
<!-- 89,101&#45;&#45;109,109 -->
<g id="edge38" class="edge">
<title>89,101&#45;&#45;109,109</title>
<path fill="none" stroke="black" d="M246.25,-349.06C242.33,-348.32 238.32,-347.57 234.35,-346.82"/>
</g>
<!-- 109,109&#45;&#45;109,89 -->
<g id="edge39" class="edge">
<title>109,109&#45;&#45;109,89</title>
<path fill="none" stroke="black" d="M199.41,-321.32C201.86,-307.17 205.23,-287.67 207.67,-273.52"/>
</g>
<!-- 125,109 -->
<g id="node30" class="node">
<title>125,109</title>
<ellipse fill="none" stroke="black" cx="114.32" cy="-320.83" rx="41.12" ry="18"/>
<text text-anchor="middle" x="114.32" y="-315.78" font-family="Times,serif" font-size="14.00">125,109</text>
</g>
<!-- 109,109&#45;&#45;125,109 -->
<g id="edge40" class="edge">
<title>109,109&#45;&#45;125,109</title>
<path fill="none" stroke="black" d="M159.6,-331.22C156.78,-330.57 153.95,-329.92 151.13,-329.28"/>
</g>
<!-- 125,109&#45;&#45;131,79 -->
<g id="edge41" class="edge">
<title>125,109&#45;&#45;131,79</title>
<path fill="none" stroke="black" d="M117.68,-302.67C120.37,-288.14 124.12,-267.86 126.81,-253.33"/>
</g>
<!-- 129,137 -->
<g id="node31" class="node">
<title>129,137</title>
<ellipse fill="none" stroke="black" cx="102.67" cy="-404.77" rx="41.12" ry="18"/>
<text text-anchor="middle" x="102.67" y="-399.72" font-family="Times,serif" font-size="14.00">129,137</text>
</g>
<!-- 125,109&#45;&#45;129,137 -->
<g id="edge42" class="edge">
<title>125,109&#45;&#45;129,137</title>
<path fill="none" stroke="black" d="M111.79,-339.04C109.84,-353.13 107.15,-372.52 105.19,-386.6"/>
</g>
<!-- 99,131 -->
<g id="node32" class="node">
<title>99,131</title>
<ellipse fill="none" stroke="black" cx="185.77" cy="-422.92" rx="36.51" ry="18"/>
<text text-anchor="middle" x="185.77" y="-417.87" font-family="Times,serif" font-size="14.00">99,131</text>
</g>
<!-- 129,137&#45;&#45;99,131 -->
<g id="edge43" class="edge">
<title>129,137&#45;&#45;99,131</title>
<path fill="none" stroke="black" d="M139.85,-412.89C143.91,-413.78 148.03,-414.68 152.04,-415.55"/>
</g>
<!-- 140,139 -->
<g id="node36" class="node">
<title>140,139</title>
<ellipse fill="none" stroke="black" cx="41.12" cy="-453.41" rx="41.12" ry="18"/>
<text text-anchor="middle" x="41.12" y="-448.36" font-family="Times,serif" font-size="14.00">140,139</text>
</g>
<!-- 129,137&#45;&#45;140,139 -->
<g id="edge52" class="edge">
<title>129,137&#45;&#45;140,139</title>
<path fill="none" stroke="black" d="M82.52,-420.7C75.64,-426.13 67.97,-432.2 61.11,-437.62"/>
</g>
<!-- 99,131&#45;&#45;109,109 -->
<g id="edge51" class="edge">
<title>99,131&#45;&#45;109,109</title>
<path fill="none" stroke="black" d="M188.04,-404.84C189.79,-390.97 192.19,-371.89 193.94,-357.95"/>
</g>
<!-- 77,125 -->
<g id="node33" class="node">
<title>77,125</title>
<ellipse fill="none" stroke="black" cx="271.46" cy="-438.16" rx="36.51" ry="18"/>
<text text-anchor="middle" x="271.46" y="-433.11" font-family="Times,serif" font-size="14.00">77,125</text>
</g>
<!-- 99,131&#45;&#45;77,125 -->
<g id="edge44" class="edge">
<title>99,131&#45;&#45;77,125</title>
<path fill="none" stroke="black" d="M220.63,-429.12C225.91,-430.06 231.36,-431.03 236.64,-431.97"/>
</g>
<!-- 77,125&#45;&#45;89,101 -->
<g id="edge50" class="edge">
<title>77,125&#45;&#45;89,101</title>
<path fill="none" stroke="black" d="M273.47,-419.82C274.98,-406.13 277.02,-387.5 278.52,-373.82"/>
</g>
<!-- 61,133 -->
<g id="node34" class="node">
<title>61,133</title>
<ellipse fill="none" stroke="black" cx="359.07" cy="-449.52" rx="36.51" ry="18"/>
<text text-anchor="middle" x="359.07" y="-444.47" font-family="Times,serif" font-size="14.00">61,133</text>
</g>
<!-- 77,125&#45;&#45;61,133 -->
<g id="edge45" class="edge">
<title>77,125&#45;&#45;61,133</title>
<path fill="none" stroke="black" d="M307.1,-442.78C312.5,-443.48 318.07,-444.2 323.47,-444.9"/>
</g>
<!-- 61,133&#45;&#45;57,103 -->
<g id="edge49" class="edge">
<title>61,133&#45;&#45;57,103</title>
<path fill="none" stroke="black" d="M360.36,-431.3C361.28,-418.25 362.51,-400.74 363.43,-387.65"/>
</g>
<!-- 41,137 -->
<g id="node35" class="node">
<title>41,137</title>
<ellipse fill="none" stroke="black" cx="448.27" cy="-452.37" rx="36.51" ry="18"/>
<text text-anchor="middle" x="448.27" y="-447.32" font-family="Times,serif" font-size="14.00">41,137</text>
</g>
<!-- 61,133&#45;&#45;41,137 -->
<g id="edge46" class="edge">
<title>61,133&#45;&#45;41,137</title>
<path fill="none" stroke="black" d="M395.87,-450.7C401.05,-450.86 406.38,-451.03 411.56,-451.2"/>
</g>
<!-- 41,137&#45;&#45;19,107 -->
<g id="edge47" class="edge">
<title>41,137&#45;&#45;19,107</title>
<path fill="none" stroke="black" d="M469.8,-437.42C477.43,-432.11 486.02,-426.14 493.66,-420.84"/>
</g>
<!-- 41,137&#45;&#45;43,105 -->
<g id="edge48" class="edge">
<title>41,137&#45;&#45;43,105</title>
<path fill="none" stroke="black" d="M448.17,-434.24C448.11,-423.42 448.04,-409.73 447.98,-398.88"/>
</g>
</g>
</svg>
