<?xml version="1.0" encoding="UTF-8" standalone="no"?>
<!DOCTYPE svg PUBLIC "-//W3C//DTD SVG 1.1//EN"
 "http://www.w3.org/Graphics/SVG/1.1/DTD/svg11.dtd">
<!-- Generated by graphviz version 9.0.0 (20230911.1827)
 -->
<!-- Title: day23 Pages: 1 -->
<svg width="915pt" height="226pt"
 viewBox="0.00 0.00 914.75 225.95" xmlns="http://www.w3.org/2000/svg" xmlns:xlink="http://www.w3.org/1999/xlink">
<g id="graph0" class="graph" transform="scale(1 1) rotate(0) translate(4 221.95)">
<title>day23</title>
<polygon fill="white" stroke="none" points="-4,4 -4,-221.95 910.75,-221.95 910.75,4 -4,4"/>
<!-- 0,1 -->
<g id="node1" class="node">
<title>0,1</title>
<ellipse fill="none" stroke="black" cx="879.75" cy="-109.03" rx="27" ry="18"/>
<text text-anchor="middle" x="879.75" y="-103.98" font-family="Times,serif" font-size="14.00">0,1</text>
</g>
<!-- 5,3 -->
<g id="node2" class="node">
<title>5,3</title>
<ellipse fill="none" stroke="black" cx="704.09" cy="-108.92" rx="27" ry="18"/>
<text text-anchor="middle" x="704.09" y="-103.87" font-family="Times,serif" font-size="14.00">5,3</text>
</g>
<!-- 0,1&#45;&#45;5,3 -->
<g id="edge1" class="edge">
<title>0,1&#45;&#45;5,3</title>
<path fill="none" stroke="black" d="M852.31,-109.01C819.3,-108.99 764.26,-108.95 731.34,-108.93"/>
<text text-anchor="middle" x="785.07" y="-112.17" font-family="Times,serif" font-size="14.00">15</text>
</g>
<!-- 13,5 -->
<g id="node3" class="node">
<title>13,5</title>
<ellipse fill="none" stroke="black" cx="547.18" cy="-199.95" rx="27.3" ry="18"/>
<text text-anchor="middle" x="547.18" y="-194.9" font-family="Times,serif" font-size="14.00">13,5</text>
</g>
<!-- 5,3&#45;&#45;13,5 -->
<g id="edge2" class="edge">
<title>5,3&#45;&#45;13,5</title>
<path fill="none" stroke="black" d="M683.58,-120.82C653.5,-138.26 597.77,-170.6 567.7,-188.05"/>
<text text-anchor="middle" x="618.89" y="-157.63" font-family="Times,serif" font-size="14.00">22</text>
</g>
<!-- 19,13 -->
<g id="node4" class="node">
<title>19,13</title>
<ellipse fill="none" stroke="black" cx="364.77" cy="-199.94" rx="31.9" ry="18"/>
<text text-anchor="middle" x="364.77" y="-194.89" font-family="Times,serif" font-size="14.00">19,13</text>
</g>
<!-- 13,5&#45;&#45;19,13 -->
<g id="edge3" class="edge">
<title>13,5&#45;&#45;19,13</title>
<path fill="none" stroke="black" d="M519.48,-199.95C486.59,-199.95 431.83,-199.95 397.05,-199.94"/>
<text text-anchor="middle" x="451.51" y="-203.15" font-family="Times,serif" font-size="14.00">38</text>
</g>
<!-- 13,13 -->
<g id="node5" class="node">
<title>13,13</title>
<ellipse fill="none" stroke="black" cx="456.01" cy="-108.96" rx="31.9" ry="18"/>
<text text-anchor="middle" x="456.01" y="-103.91" font-family="Times,serif" font-size="14.00">13,13</text>
</g>
<!-- 19,13&#45;&#45;13,13 -->
<g id="edge4" class="edge">
<title>19,13&#45;&#45;13,13</title>
<path fill="none" stroke="black" d="M380.66,-184.1C397.31,-167.5 423.3,-141.58 439.99,-124.93"/>
<text text-anchor="middle" x="403.58" y="-157.72" font-family="Times,serif" font-size="14.00">10</text>
</g>
<!-- 13,13&#45;&#45;13,5 -->
<g id="edge12" class="edge">
<title>13,13&#45;&#45;13,5</title>
<path fill="none" stroke="black" d="M471.89,-124.81C488.72,-141.61 515.14,-167.97 531.78,-184.59"/>
<text text-anchor="middle" x="495.09" y="-157.9" font-family="Times,serif" font-size="14.00">12</text>
</g>
<!-- 3,11 -->
<g id="node6" class="node">
<title>3,11</title>
<ellipse fill="none" stroke="black" cx="547.33" cy="-18" rx="27.3" ry="18"/>
<text text-anchor="middle" x="547.33" y="-12.95" font-family="Times,serif" font-size="14.00">3,11</text>
</g>
<!-- 13,13&#45;&#45;3,11 -->
<g id="edge5" class="edge">
<title>13,13&#45;&#45;3,11</title>
<path fill="none" stroke="black" d="M471.92,-93.12C488.78,-76.32 515.23,-49.97 531.91,-33.36"/>
<text text-anchor="middle" x="495.16" y="-66.44" font-family="Times,serif" font-size="14.00">24</text>
</g>
<!-- 3,11&#45;&#45;5,3 -->
<g id="edge6" class="edge">
<title>3,11&#45;&#45;5,3</title>
<path fill="none" stroke="black" d="M568.15,-30.07C598.3,-47.56 653.77,-79.73 683.68,-97.08"/>
<text text-anchor="middle" x="619.17" y="-66.78" font-family="Times,serif" font-size="14.00">22</text>
</g>
<!-- 11,21 -->
<g id="node7" class="node">
<title>11,21</title>
<ellipse fill="none" stroke="black" cx="364.82" cy="-18.1" rx="31.9" ry="18"/>
<text text-anchor="middle" x="364.82" y="-13.05" font-family="Times,serif" font-size="14.00">11,21</text>
</g>
<!-- 3,11&#45;&#45;11,21 -->
<g id="edge7" class="edge">
<title>3,11&#45;&#45;11,21</title>
<path fill="none" stroke="black" d="M519.61,-18.02C486.7,-18.03 431.91,-18.07 397.12,-18.09"/>
<text text-anchor="middle" x="451.61" y="-21.25" font-family="Times,serif" font-size="14.00">30</text>
</g>
<!-- 11,21&#45;&#45;13,13 -->
<g id="edge8" class="edge">
<title>11,21&#45;&#45;13,13</title>
<path fill="none" stroke="black" d="M380.7,-33.93C397.34,-50.51 423.32,-76.39 440,-93.01"/>
<text text-anchor="middle" x="403.6" y="-66.67" font-family="Times,serif" font-size="14.00">18</text>
</g>
<!-- 19,19 -->
<g id="node8" class="node">
<title>19,19</title>
<ellipse fill="none" stroke="black" cx="207.77" cy="-108.98" rx="31.9" ry="18"/>
<text text-anchor="middle" x="207.77" y="-103.93" font-family="Times,serif" font-size="14.00">19,19</text>
</g>
<!-- 11,21&#45;&#45;19,19 -->
<g id="edge9" class="edge">
<title>11,21&#45;&#45;19,19</title>
<path fill="none" stroke="black" d="M342.32,-31.12C312.55,-48.35 260.36,-78.55 230.49,-95.83"/>
<text text-anchor="middle" x="279.65" y="-66.68" font-family="Times,serif" font-size="14.00">10</text>
</g>
<!-- 19,19&#45;&#45;19,13 -->
<g id="edge10" class="edge">
<title>19,19&#45;&#45;19,13</title>
<path fill="none" stroke="black" d="M230.27,-122.01C260.03,-139.25 312.2,-169.48 342.06,-186.79"/>
<text text-anchor="middle" x="279.42" y="-157.6" font-family="Times,serif" font-size="14.00">10</text>
</g>
<!-- 22,21 -->
<g id="node9" class="node">
<title>22,21</title>
<ellipse fill="none" stroke="black" cx="31.9" cy="-108.93" rx="31.9" ry="18"/>
<text text-anchor="middle" x="31.9" y="-103.88" font-family="Times,serif" font-size="14.00">22,21</text>
</g>
<!-- 19,19&#45;&#45;22,21 -->
<g id="edge11" class="edge">
<title>19,19&#45;&#45;22,21</title>
<path fill="none" stroke="black" d="M175.52,-108.97C143.88,-108.96 95.92,-108.95 64.25,-108.94"/>
<text text-anchor="middle" x="116.51" y="-112.15" font-family="Times,serif" font-size="14.00">5</text>
</g>
</g>
</svg>
