<?xml version="1.0" encoding="UTF-8" standalone="no"?>
<!DOCTYPE svg PUBLIC "-//W3C//DTD SVG 1.1//EN"
 "http://www.w3.org/Graphics/SVG/1.1/DTD/svg11.dtd">
<!-- Generated by graphviz version 9.0.0 (20230911.1827)
 -->
<!-- Title: sample25 Pages: 1 -->
<svg width="622pt" height="225pt"
 viewBox="0.00 0.00 621.61 224.81" xmlns="http://www.w3.org/2000/svg" xmlns:xlink="http://www.w3.org/1999/xlink">
<g id="graph0" class="graph" transform="scale(1 1) rotate(0) translate(4 220.81)">
<title>sample25</title>
<polygon fill="white" stroke="none" points="-4,4 -4,-220.81 617.61,-220.81 617.61,4 -4,4"/>
<!-- jqt -->
<g id="node1" class="node">
<title>jqt</title>
<ellipse fill="none" stroke="black" cx="131.68" cy="-177.49" rx="27" ry="18"/>
<text text-anchor="middle" x="131.68" y="-172.44" font-family="Times,serif" font-size="14.00">jqt</text>
</g>
<!-- rhn -->
<g id="node2" class="node">
<title>rhn</title>
<ellipse fill="none" stroke="black" cx="27" cy="-94.77" rx="27" ry="18"/>
<text text-anchor="middle" x="27" y="-89.72" font-family="Times,serif" font-size="14.00">rhn</text>
</g>
<!-- jqt&#45;&#45;rhn -->
<g id="edge1" class="edge">
<title>jqt&#45;&#45;rhn</title>
<path fill="none" stroke="black" d="M113.92,-163.46C94.56,-148.16 63.76,-123.82 44.5,-108.6"/>
</g>
<!-- xhk -->
<g id="node3" class="node">
<title>xhk</title>
<ellipse fill="none" stroke="black" cx="60.26" cy="-54.21" rx="27" ry="18"/>
<text text-anchor="middle" x="60.26" y="-49.16" font-family="Times,serif" font-size="14.00">xhk</text>
</g>
<!-- jqt&#45;&#45;xhk -->
<g id="edge2" class="edge">
<title>jqt&#45;&#45;xhk</title>
<path fill="none" stroke="black" d="M121.75,-160.35C108.1,-136.8 83.71,-94.68 70.11,-71.2"/>
</g>
<!-- nvd -->
<g id="node4" class="node">
<title>nvd</title>
<ellipse fill="none" stroke="black" cx="326.33" cy="-178.64" rx="27" ry="18"/>
<text text-anchor="middle" x="326.33" y="-173.59" font-family="Times,serif" font-size="14.00">nvd</text>
</g>
<!-- jqt&#45;&#45;nvd -->
<g id="edge3" class="edge">
<title>jqt&#45;&#45;nvd</title>
<path fill="none" stroke="black" d="M159.15,-177.65C196.25,-177.87 261.97,-178.26 298.99,-178.48"/>
</g>
<!-- rhn&#45;&#45;xhk -->
<g id="edge12" class="edge">
<title>rhn&#45;&#45;xhk</title>
<path fill="none" stroke="black" d="M40.15,-78.74C42.4,-75.99 44.74,-73.14 46.99,-70.39"/>
</g>
<!-- hfx -->
<g id="node9" class="node">
<title>hfx</title>
<ellipse fill="none" stroke="black" cx="175.91" cy="-75.62" rx="27" ry="18"/>
<text text-anchor="middle" x="175.91" y="-70.57" font-family="Times,serif" font-size="14.00">hfx</text>
</g>
<!-- rhn&#45;&#45;hfx -->
<g id="edge13" class="edge">
<title>rhn&#45;&#45;hfx</title>
<path fill="none" stroke="black" d="M53.97,-91.31C80.95,-87.83 122.23,-82.53 149.14,-79.06"/>
</g>
<!-- bvb -->
<g id="node13" class="node">
<title>bvb</title>
<ellipse fill="none" stroke="black" cx="138.64" cy="-42.48" rx="27" ry="18"/>
<text text-anchor="middle" x="138.64" y="-37.43" font-family="Times,serif" font-size="14.00">bvb</text>
</g>
<!-- rhn&#45;&#45;bvb -->
<g id="edge14" class="edge">
<title>rhn&#45;&#45;bvb</title>
<path fill="none" stroke="black" d="M49.32,-84.32C68.8,-75.2 96.9,-62.03 116.36,-52.92"/>
</g>
<!-- xhk&#45;&#45;hfx -->
<g id="edge7" class="edge">
<title>xhk&#45;&#45;hfx</title>
<path fill="none" stroke="black" d="M86.5,-59.07C105.43,-62.57 130.87,-67.28 149.77,-70.78"/>
</g>
<!-- lhk -->
<g id="node12" class="node">
<title>lhk</title>
<ellipse fill="none" stroke="black" cx="463.9" cy="-198.81" rx="27" ry="18"/>
<text text-anchor="middle" x="463.9" y="-193.76" font-family="Times,serif" font-size="14.00">lhk</text>
</g>
<!-- nvd&#45;&#45;lhk -->
<g id="edge25" class="edge">
<title>nvd&#45;&#45;lhk</title>
<path fill="none" stroke="black" d="M353.18,-182.58C377.42,-186.13 412.9,-191.33 437.12,-194.88"/>
</g>
<!-- rsh -->
<g id="node5" class="node">
<title>rsh</title>
<ellipse fill="none" stroke="black" cx="565.44" cy="-24.18" rx="27" ry="18"/>
<text text-anchor="middle" x="565.44" y="-19.13" font-family="Times,serif" font-size="14.00">rsh</text>
</g>
<!-- frs -->
<g id="node6" class="node">
<title>frs</title>
<ellipse fill="none" stroke="black" cx="586.61" cy="-154.78" rx="27" ry="18"/>
<text text-anchor="middle" x="586.61" y="-149.73" font-family="Times,serif" font-size="14.00">frs</text>
</g>
<!-- rsh&#45;&#45;frs -->
<g id="edge4" class="edge">
<title>rsh&#45;&#45;frs</title>
<path fill="none" stroke="black" d="M568.39,-42.34C572.43,-67.29 579.66,-111.9 583.69,-136.78"/>
</g>
<!-- pzl -->
<g id="node7" class="node">
<title>pzl</title>
<ellipse fill="none" stroke="black" cx="389.44" cy="-53.24" rx="27" ry="18"/>
<text text-anchor="middle" x="389.44" y="-48.19" font-family="Times,serif" font-size="14.00">pzl</text>
</g>
<!-- rsh&#45;&#45;pzl -->
<g id="edge5" class="edge">
<title>rsh&#45;&#45;pzl</title>
<path fill="none" stroke="black" d="M539.09,-28.53C505.91,-34.01 449.23,-43.37 415.97,-48.86"/>
</g>
<!-- lsr -->
<g id="node8" class="node">
<title>lsr</title>
<ellipse fill="none" stroke="black" cx="534.46" cy="-93.16" rx="27" ry="18"/>
<text text-anchor="middle" x="534.46" y="-88.11" font-family="Times,serif" font-size="14.00">lsr</text>
</g>
<!-- rsh&#45;&#45;lsr -->
<g id="edge6" class="edge">
<title>rsh&#45;&#45;lsr</title>
<path fill="none" stroke="black" d="M557.63,-41.58C552.97,-51.96 547.07,-65.1 542.39,-75.52"/>
</g>
<!-- frs&#45;&#45;lsr -->
<g id="edge31" class="edge">
<title>frs&#45;&#45;lsr</title>
<path fill="none" stroke="black" d="M573.18,-138.91C565.46,-129.78 555.78,-118.35 548.03,-109.19"/>
</g>
<!-- qnr -->
<g id="node11" class="node">
<title>qnr</title>
<ellipse fill="none" stroke="black" cx="452.6" cy="-132.84" rx="27" ry="18"/>
<text text-anchor="middle" x="452.6" y="-127.79" font-family="Times,serif" font-size="14.00">qnr</text>
</g>
<!-- frs&#45;&#45;qnr -->
<g id="edge32" class="edge">
<title>frs&#45;&#45;qnr</title>
<path fill="none" stroke="black" d="M560.14,-150.45C536.64,-146.6 502.5,-141.01 479.02,-137.16"/>
</g>
<!-- frs&#45;&#45;lhk -->
<g id="edge33" class="edge">
<title>frs&#45;&#45;lhk</title>
<path fill="none" stroke="black" d="M562.37,-163.48C540.86,-171.2 509.59,-182.42 488.1,-190.13"/>
</g>
<!-- pzl&#45;&#45;nvd -->
<g id="edge17" class="edge">
<title>pzl&#45;&#45;nvd</title>
<path fill="none" stroke="black" d="M380.66,-70.68C368.61,-94.64 347.05,-137.47 335.03,-161.35"/>
</g>
<!-- pzl&#45;&#45;lsr -->
<g id="edge18" class="edge">
<title>pzl&#45;&#45;lsr</title>
<path fill="none" stroke="black" d="M414.7,-60.2C441.32,-67.52 482.98,-78.99 509.49,-86.29"/>
</g>
<!-- pzl&#45;&#45;hfx -->
<g id="edge19" class="edge">
<title>pzl&#45;&#45;hfx</title>
<path fill="none" stroke="black" d="M362.39,-56.08C321.43,-60.37 244.1,-68.47 203.07,-72.77"/>
</g>
<!-- lsr&#45;&#45;lhk -->
<g id="edge26" class="edge">
<title>lsr&#45;&#45;lhk</title>
<path fill="none" stroke="black" d="M523.44,-109.67C510.26,-129.4 488.33,-162.23 475.08,-182.07"/>
</g>
<!-- cmg -->
<g id="node10" class="node">
<title>cmg</title>
<ellipse fill="none" stroke="black" cx="338.76" cy="-93.85" rx="27.3" ry="18"/>
<text text-anchor="middle" x="338.76" y="-88.8" font-family="Times,serif" font-size="14.00">cmg</text>
</g>
<!-- cmg&#45;&#45;nvd -->
<g id="edge8" class="edge">
<title>cmg&#45;&#45;nvd</title>
<path fill="none" stroke="black" d="M336.06,-112.25C333.98,-126.47 331.1,-146.06 329.02,-160.28"/>
</g>
<!-- cmg&#45;&#45;qnr -->
<g id="edge9" class="edge">
<title>cmg&#45;&#45;qnr</title>
<path fill="none" stroke="black" d="M363.46,-102.31C382.69,-108.9 409.23,-117.98 428.34,-124.53"/>
</g>
<!-- cmg&#45;&#45;lhk -->
<g id="edge10" class="edge">
<title>cmg&#45;&#45;lhk</title>
<path fill="none" stroke="black" d="M355.9,-108.23C379.86,-128.33 423.12,-164.6 446.97,-184.61"/>
</g>
<!-- cmg&#45;&#45;bvb -->
<g id="edge11" class="edge">
<title>cmg&#45;&#45;bvb</title>
<path fill="none" stroke="black" d="M313.01,-87.24C274.58,-77.38 202.66,-58.91 164.3,-49.06"/>
</g>
<!-- qnr&#45;&#45;nvd -->
<g id="edge20" class="edge">
<title>qnr&#45;&#45;nvd</title>
<path fill="none" stroke="black" d="M428.55,-141.56C406.08,-149.71 372.72,-161.81 350.28,-169.95"/>
</g>
<!-- bvb&#45;&#45;xhk -->
<g id="edge15" class="edge">
<title>bvb&#45;&#45;xhk</title>
<path fill="none" stroke="black" d="M112.11,-46.45C104.02,-47.66 95.14,-48.99 87.04,-50.2"/>
</g>
<!-- bvb&#45;&#45;hfx -->
<g id="edge16" class="edge">
<title>bvb&#45;&#45;hfx</title>
<path fill="none" stroke="black" d="M155.1,-57.11C156.5,-58.36 157.92,-59.62 159.32,-60.87"/>
</g>
<!-- ntq -->
<g id="node14" class="node">
<title>ntq</title>
<ellipse fill="none" stroke="black" cx="64.61" cy="-140.06" rx="27" ry="18"/>
<text text-anchor="middle" x="64.61" y="-135.01" font-family="Times,serif" font-size="14.00">ntq</text>
</g>
<!-- ntq&#45;&#45;jqt -->
<g id="edge21" class="edge">
<title>ntq&#45;&#45;jqt</title>
<path fill="none" stroke="black" d="M85.47,-151.7C93.46,-156.16 102.59,-161.26 110.61,-165.73"/>
</g>
<!-- ntq&#45;&#45;xhk -->
<g id="edge22" class="edge">
<title>ntq&#45;&#45;xhk</title>
<path fill="none" stroke="black" d="M63.69,-121.85C62.96,-107.38 61.94,-87.22 61.2,-72.68"/>
</g>
<!-- ntq&#45;&#45;hfx -->
<g id="edge23" class="edge">
<title>ntq&#45;&#45;hfx</title>
<path fill="none" stroke="black" d="M85.29,-128.09C105.28,-116.52 135.39,-99.08 155.34,-87.53"/>
</g>
<!-- ntq&#45;&#45;bvb -->
<g id="edge24" class="edge">
<title>ntq&#45;&#45;bvb</title>
<path fill="none" stroke="black" d="M76.84,-123.95C90.47,-105.97 112.41,-77.05 126.15,-58.94"/>
</g>
<!-- rzs -->
<g id="node15" class="node">
<title>rzs</title>
<ellipse fill="none" stroke="black" cx="477.64" cy="-18" rx="27" ry="18"/>
<text text-anchor="middle" x="477.64" y="-12.95" font-family="Times,serif" font-size="14.00">rzs</text>
</g>
<!-- rzs&#45;&#45;rsh -->
<g id="edge27" class="edge">
<title>rzs&#45;&#45;rsh</title>
<path fill="none" stroke="black" d="M504.94,-19.92C515.51,-20.66 527.59,-21.51 538.16,-22.26"/>
</g>
<!-- rzs&#45;&#45;lsr -->
<g id="edge28" class="edge">
<title>rzs&#45;&#45;lsr</title>
<path fill="none" stroke="black" d="M489.97,-34.31C499.5,-46.92 512.63,-64.28 522.16,-76.88"/>
</g>
<!-- rzs&#45;&#45;cmg -->
<g id="edge29" class="edge">
<title>rzs&#45;&#45;cmg</title>
<path fill="none" stroke="black" d="M456.55,-29.52C430.44,-43.78 386.25,-67.92 360.05,-82.22"/>
</g>
<!-- rzs&#45;&#45;qnr -->
<g id="edge30" class="edge">
<title>rzs&#45;&#45;qnr</title>
<path fill="none" stroke="black" d="M473.67,-36.2C468.98,-57.7 461.23,-93.26 456.55,-114.73"/>
</g>
</g>
</svg>
